<?xml version="1.0" encoding="UTF-8" standalone="no"?>
<svg
   xmlns:dc="http://purl.org/dc/elements/1.1/"
   xmlns:cc="http://creativecommons.org/ns#"
   xmlns:rdf="http://www.w3.org/1999/02/22-rdf-syntax-ns#"
   xmlns:svg="http://www.w3.org/2000/svg"
   xmlns="http://www.w3.org/2000/svg"
   xmlns:sodipodi="http://sodipodi.sourceforge.net/DTD/sodipodi-0.dtd"
   xmlns:inkscape="http://www.inkscape.org/namespaces/inkscape"
   inkscape:version="1.0 (4035a4fb49, 2020-05-01)"
   sodipodi:docname="star1.svg"
   id="svg4"
   version="1.1"
   width="511pt"
   viewBox="0 -10 511.98685 511"
   height="511pt">
  <metadata
     id="metadata10">
    <rdf:RDF>
      <cc:Work
         rdf:about="">
        <dc:format>image/svg+xml</dc:format>
        <dc:type
           rdf:resource="http://purl.org/dc/dcmitype/StillImage" />
      </cc:Work>
    </rdf:RDF>
  </metadata>
  <defs
     id="defs8" />
  <sodipodi:namedview
     inkscape:current-layer="svg4"
     inkscape:window-maximized="1"
     inkscape:window-y="-8"
     inkscape:window-x="-8"
     inkscape:cy="403.68209"
     inkscape:cx="143.95959"
     inkscape:zoom="1.4142136"
     showgrid="false"
     id="namedview6"
     inkscape:window-height="971"
     inkscape:window-width="1280"
     inkscape:pageshadow="2"
     inkscape:pageopacity="0"
     guidetolerance="10"
     gridtolerance="10"
     objecttolerance="10"
     borderopacity="1"
     bordercolor="#666666"
     pagecolor="#ffffff" />
  <path
     style="stroke:none;stroke-width:0;stroke-miterlimit:4;stroke-dasharray:none;stroke-opacity:1;fill:#000007;fill-opacity:1"
     id="path2"
     d="m114.59375 491.140625c-5.609375 0-11.179688-1.75-15.933594-5.1875-8.855468-6.417969-12.992187-17.449219-10.582031-28.09375l32.9375-145.089844-111.703125-97.960937c-8.210938-7.167969-11.347656-18.519532-7.976562-28.90625 3.371093-10.367188 12.542968-17.707032 23.402343-18.710938l147.796875-13.417968 58.433594-136.746094c4.308594-10.046875 14.121094-16.535156 25.023438-16.535156 10.902343 0 20.714843 6.488281 25.023437 16.511718l58.433594 136.769532 147.773437 13.417968c10.882813.980469 20.054688 8.34375 23.425782 18.710938 3.371093 10.367187.253906 21.738281-7.957032 28.90625l-111.703125 97.941406 32.9375 145.085938c2.414063 10.667968-1.726562 21.699218-10.578125 28.097656-8.832031 6.398437-20.609375 6.890625-29.910156 1.300781l-127.445312-76.160156-127.445313 76.203125c-4.308594 2.558594-9.109375 3.863281-13.953125 3.863281zm141.398438-112.875c4.84375 0 9.640624 1.300781 13.953124 3.859375l120.277344 71.9375-31.085937-136.941406c-2.21875-9.746094 1.089843-19.921875 8.621093-26.515625l105.472657-92.5-139.542969-12.671875c-10.046875-.917969-18.6875-7.234375-22.613281-16.492188l-55.082031-129.046875-55.148438 129.066407c-3.882812 9.195312-12.523438 15.511718-22.546875 16.429687l-139.5625 12.671875 105.46875 92.5c7.554687 6.613281 10.859375 16.769531 8.621094 26.539062l-31.0625 136.9375 120.277343-71.914062c4.308594-2.558594 9.109376-3.859375 13.953126-3.859375zm-84.585938-221.847656s0 .023437-.023438.042969zm169.128906-.0625.023438.042969c0-.023438 0-.023438-.023438-.042969zm0 0" />
  <path
     transform="matrix(0.75144843,0,0,0.75144843,0,-10.493425)"
     id="path2765"
     d="m 163.37989,614.51432 c 0.30069,-1.26633 9.62816,-42.12742 20.72771,-90.80242 22.60785,-99.14241 22.63107,-99.28781 17.59454,-110.17515 -1.44394,-3.12133 -4.42058,-7.62133 -6.61477,-10 -2.19418,-2.37867 -35.0533,-31.54985 -73.02026,-64.82485 -37.966959,-33.275 -68.724536,-60.6063 -68.350168,-60.73621 0.374368,-0.12992 42.82202,-4.05647 94.328118,-8.72567 107.03587,-9.70316 101.21691,-8.71345 111.4195,-18.95061 l 6.06695,-6.08751 37.60357,-88 c 32.96434,-77.143264 37.72572,-87.691567 38.59373,-85.499997 8.3884,21.179294 73.91757,172.587507 75.9505,175.487167 3.53847,5.04708 10.77945,10.54816 16.84199,12.79509 3.49964,1.29706 28.64571,3.91298 98.74596,10.27245 51.72785,4.69274 94.20047,8.68207 94.38359,8.8652 0.18313,0.18312 -31.74894,28.4928 -70.96014,62.91039 -39.21121,34.41759 -72.33044,64.1248 -73.59831,66.01602 -3.92547,5.85546 -6.19479,13.20715 -6.19479,20.06865 0,4.71455 5.38772,30.11891 20.51634,96.73928 11.28399,49.69016 20.39649,90.86383 20.25,91.49705 -0.14649,0.63321 -35.59134,-20.01006 -78.76634,-45.87394 -43.175,-25.86388 -80.78866,-48.09364 -83.5859,-49.39948 -2.79725,-1.30583 -7.75416,-2.65313 -11.01536,-2.99399 -12.1026,-1.26497 -11.71715,-1.46204 -97.70973,49.95497 -43.55395,26.04195 -80.216,47.89282 -81.47122,48.55749 -2.10586,1.11511 -2.23996,1.03058 -1.73551,-1.09393 z"
     style="fill:#ffc107;fill-opacity:1;stroke:none;stroke-width:0;stroke-linecap:square;stroke-miterlimit:4;stroke-dasharray:none;stroke-opacity:1;paint-order:markers stroke fill" />
</svg>
